<svg aria-hidden="true" style="position: absolute; width: 0; height: 0; overflow: hidden;" version="1.1" xmlns="http://www.w3.org/2000/svg" xmlns:xlink="http://www.w3.org/1999/xlink">
<defs>
<symbol id="icon-tiktok" viewBox="0 0 32 32">
<path fill="#fff" style="fill: var(--color1, #fff)" d="M22.133 7.76c-0.911-1.041-1.413-2.377-1.413-3.76h-4.12v16.533c-0.031 0.895-0.409 1.743-1.053 2.365s-1.505 0.969-2.4 0.969c-1.893 0-3.467-1.547-3.467-3.467 0-2.293 2.213-4.013 4.493-3.307v-4.213c-4.6-0.613-8.627 2.96-8.627 7.52 0 4.44 3.68 7.6 7.587 7.6 4.187 0 7.587-3.4 7.587-7.6v-8.387c1.671 1.2 3.676 1.844 5.733 1.84v-4.12c0 0-2.507 0.12-4.32-1.973z"></path>
</symbol>
<symbol id="icon-inst" viewBox="0 0 32 32">
<path fill="#fff" style="fill: var(--color1, #fff)" d="M17.371 2.667c1.5 0.004 2.261 0.012 2.919 0.031l0.259 0.009c0.299 0.011 0.593 0.024 0.949 0.040 1.419 0.067 2.387 0.291 3.236 0.62 0.88 0.339 1.621 0.797 2.363 1.537 0.678 0.666 1.203 1.473 1.537 2.363 0.329 0.849 0.553 1.817 0.62 3.237 0.016 0.355 0.029 0.649 0.040 0.949l0.008 0.259c0.020 0.656 0.028 1.417 0.031 2.917l0.001 0.995v1.747c0.003 0.973-0.007 1.945-0.031 2.917l-0.008 0.259c-0.011 0.3-0.024 0.595-0.040 0.949-0.067 1.42-0.293 2.387-0.621 3.237-0.334 0.89-0.859 1.696-1.537 2.363-0.666 0.678-1.473 1.203-2.363 1.537-0.849 0.329-1.817 0.553-3.236 0.62l-0.949 0.040-0.259 0.008c-0.657 0.019-1.419 0.028-2.919 0.031l-2.74 0.001c-0.973 0.003-1.946-0.007-2.919-0.031l-0.259-0.008c-0.316-0.012-0.633-0.026-0.949-0.041-1.419-0.067-2.387-0.291-3.237-0.62-0.89-0.335-1.695-0.859-2.361-1.537-0.679-0.666-1.204-1.473-1.539-2.363-0.329-0.849-0.553-1.817-0.62-3.237l-0.040-0.949-0.007-0.259c-0.025-0.972-0.036-1.945-0.033-2.917v-2.741c-0.004-0.973 0.006-1.945 0.029-2.917l0.009-0.259c0.011-0.3 0.024-0.595 0.040-0.949 0.067-1.42 0.291-2.387 0.62-3.237 0.336-0.89 0.862-1.697 1.541-2.363 0.666-0.678 1.471-1.203 2.36-1.537 0.851-0.329 1.817-0.553 3.237-0.62 0.355-0.016 0.651-0.029 0.949-0.040l0.259-0.008c0.972-0.024 1.945-0.034 2.917-0.031l2.741-0.001zM16 9.333c-1.768 0-3.464 0.702-4.714 1.953s-1.953 2.946-1.953 4.714 0.702 3.464 1.953 4.714c1.25 1.25 2.946 1.953 4.714 1.953s3.464-0.702 4.714-1.953c1.25-1.25 1.953-2.946 1.953-4.714s-0.702-3.464-1.953-4.714c-1.25-1.25-2.946-1.953-4.714-1.953zM16 12c0.525-0 1.045 0.103 1.531 0.304s0.926 0.495 1.298 0.867 0.666 0.812 0.867 1.297c0.201 0.485 0.305 1.005 0.305 1.531s-0.103 1.046-0.304 1.531c-0.201 0.485-0.495 0.926-0.867 1.298s-0.812 0.666-1.298 0.867-1.005 0.305-1.531 0.305c-1.061 0-2.078-0.421-2.828-1.172s-1.172-1.768-1.172-2.828c0-1.061 0.421-2.078 1.172-2.828s1.768-1.172 2.828-1.172zM23.001 7.333c-0.442 0-0.866 0.176-1.178 0.488s-0.488 0.736-0.488 1.178c0 0.442 0.175 0.866 0.488 1.179s0.736 0.488 1.178 0.488c0.442 0 0.866-0.175 1.178-0.488s0.488-0.736 0.488-1.179-0.176-0.866-0.488-1.178c-0.313-0.313-0.736-0.488-1.178-0.488z"></path>
</symbol>
<symbol id="icon-facebook" viewBox="0 0 32 32">
<path fill="#fff" style="fill: var(--color1, #fff)" d="M29.333 16c0-7.36-5.973-13.333-13.333-13.333s-13.333 5.973-13.333 13.333c0 6.453 4.587 11.827 10.667 13.067v-9.067h-2.667v-4h2.667v-3.333c0-2.573 2.093-4.667 4.667-4.667h3.333v4h-2.667c-0.733 0-1.333 0.6-1.333 1.333v2.667h4v4h-4v9.267c6.733-0.667 12-6.347 12-13.267z"></path>
</symbol>
<symbol id="icon-youtube" viewBox="0 0 32 32">
<path fill="#fff" style="fill: var(--color1, #fff)" d="M13.333 20l6.92-4-6.92-4v8zM28.747 9.56c0.173 0.627 0.293 1.467 0.373 2.533 0.093 1.067 0.133 1.987 0.133 2.787l0.080 1.12c0 2.92-0.213 5.067-0.587 6.44-0.333 1.2-1.107 1.973-2.307 2.307-0.627 0.173-1.773 0.293-3.533 0.373-1.733 0.093-3.32 0.133-4.787 0.133l-2.12 0.080c-5.587 0-9.067-0.213-10.44-0.587-1.2-0.333-1.973-1.107-2.307-2.307-0.173-0.627-0.293-1.467-0.373-2.533-0.093-1.067-0.133-1.987-0.133-2.787l-0.080-1.12c0-2.92 0.213-5.067 0.587-6.44 0.333-1.2 1.107-1.973 2.307-2.307 0.627-0.173 1.773-0.293 3.533-0.373 1.733-0.093 3.32-0.133 4.787-0.133l2.12-0.080c5.587 0 9.067 0.213 10.44 0.587 1.2 0.333 1.973 1.107 2.307 2.307z"></path>
</symbol>
<symbol id="icon-phone" viewBox="0 0 32 32">
<path fill="none" stroke="#fff" style="stroke: var(--color1, #fff)" stroke-linejoin="round" stroke-linecap="round" stroke-miterlimit="4" stroke-width="1.3333" d="M13.898 10.355l-2.872-2.872c-0.267-0.267-0.709-0.256-0.989 0.024l-2 2c-2.531 2.531 1.291 7.366 4.178 10.254 2.87 2.87 7.747 6.734 10.278 4.203l2-2c0.28-0.28 0.29-0.722 0.024-0.989l-2.872-2.872c-0.267-0.267-0.709-0.256-0.989 0.024l-2 2c0 0-0.964-0.002-3.897-2.885s-2.885-3.897-2.885-3.897l2-2c0.28-0.28 0.29-0.722 0.024-0.989z"></path>
</symbol>
<symbol id="icon-location" viewBox="0 0 32 32">
<path fill="none" stroke="#fff" style="stroke: var(--color1, #fff)" stroke-linejoin="round" stroke-linecap="butt" stroke-miterlimit="4" stroke-width="1.3333" d="M19 13.808c0 1.614-1.343 2.923-3 2.923s-3-1.309-3-2.923c0-1.614 1.343-2.923 3-2.923s3 1.309 3 2.923z"></path>
<path fill="none" stroke="#fff" style="stroke: var(--color1, #fff)" stroke-linejoin="round" stroke-linecap="butt" stroke-miterlimit="4" stroke-width="1.3333" d="M23.5 13.583c0 6.16-7.5 11.917-7.5 11.917s-7.5-5.757-7.5-11.917c0-3.912 3.358-7.083 7.5-7.083s7.5 3.171 7.5 7.083z"></path>
</symbol>
<symbol id="icon-mail" viewBox="0 0 32 32">
<path fill="none" stroke="#fff" style="stroke: var(--color1, #fff)" stroke-linejoin="round" stroke-linecap="round" stroke-miterlimit="4" stroke-width="1.3333" d="M6.5 11l7.322 4.753c1.325 0.86 3.031 0.86 4.356 0l7.322-4.753M25.5 11c0-1.105-0.895-2-2-2h-15c-1.105 0-2 0.895-2 2v10c0 1.105 0.895 2 2 2h15c1.105 0 2-0.895 2-2v-10z"></path>
</symbol>
<symbol id="icon-arrow-up" viewBox="0 0 32 32">
<path fill="none" stroke="#fff" style="stroke: var(--color1, #fff)" stroke-linejoin="round" stroke-linecap="round" stroke-miterlimit="4" stroke-width="1.3333" d="M6.5 25.5l18.993-19M25.493 16.729l-0-10.229h-10.229"></path>
</symbol>
<symbol id="icon-arrow-down" viewBox="0 0 32 32">
<path fill="none" stroke="#fff" style="stroke: var(--color1, #fff)" stroke-linejoin="round" stroke-linecap="round" stroke-miterlimit="4" stroke-width="1.3333" d="M6.5 6.5l19 18.993M15.271 25.493h10.229v-10.229"></path>
</symbol>
<symbol id="icon-clock" viewBox="0 0 32 32">
<path fill="none" stroke="#fff" style="stroke: var(--color1, #fff)" stroke-linejoin="round" stroke-linecap="round" stroke-miterlimit="4" stroke-width="1" d="M16.038 13.077v5.115M13.481 6.5h5.481M24.077 17.462c0 4.44-3.599 8.038-8.038 8.038s-8.039-3.599-8.039-8.038c0-4.439 3.599-8.038 8.039-8.038s8.038 3.599 8.038 8.038z"></path>
</symbol>
<symbol id="icon-quality" viewBox="0 0 32 32">
  <path fill="none" stroke="#fff" style="stroke: var(--color1, #fff)" stroke-width="2" stroke-linecap="round" stroke-linejoin="round" d="M16 28s10-5 10-13.333V6.667L16 2.667 6 6.667v8C6 23 16 28 16 28z"/>
  <path fill="none" stroke="#fff" style="stroke: var(--color1, #fff)" stroke-width="2" stroke-linecap="round" stroke-linejoin="round" d="m12 14.667 2.667 2.666 5.333-5.333"/>
</symbol>

<symbol id="icon-transparency" viewBox="0 0 32 32">
  <path fill="none" stroke="#fff" style="stroke: var(--color1, #fff)" stroke-width="2" stroke-linecap="round" stroke-linejoin="round" d="M2.667 16s4-9.333 13.333-9.333 13.333 9.333 13.333 9.333-4 9.333-13.333 9.333S2.667 16 2.667 16z"/>
  <circle cx="16" cy="16" r="4" fill="none" stroke="#fff" style="stroke: var(--color1, #fff)" stroke-width="2" stroke-linecap="round" stroke-linejoin="round"/>
</symbol>

<symbol id="icon-support" viewBox="0 0 32 32">
  <circle cx="16" cy="16" r="13.333" fill="none" stroke="#fff" style="stroke: var(--color1, #fff)" stroke-width="2" stroke-linecap="round" stroke-linejoin="round"/>
  <path fill="none" stroke="#fff" style="stroke: var(--color1, #fff)" stroke-width="2" stroke-linecap="round" stroke-linejoin="round" d="m6.573 6.573 5.654 5.654M25.427 6.573l-5.654 5.654M25.427 25.427l-5.654-5.654M6.573 25.427l5.654-5.654"/>
  <circle cx="16" cy="16" r="5.333" fill="none" stroke="#fff" style="stroke: var(--color1, #fff)" stroke-width="2" stroke-linecap="round" stroke-linejoin="round"/>
</symbol>

<!-- Аналіз та ТЗ -->
<symbol id="icon-analysis" viewBox="0 0 32 32">
  <rect x="10.667" y="2.667" width="10.666" height="5.333" rx="1.333" fill="none" stroke="#fff" style="stroke: var(--color1, #fff)" stroke-width="2" stroke-linecap="round" stroke-linejoin="round"/>
  <path fill="none" stroke="#fff" style="stroke: var(--color1, #fff)" stroke-width="2" stroke-linecap="round" stroke-linejoin="round" d="M21.333 5.333h2.667a2.667 2.667 0 0 1 2.667 2.667v18.667a2.667 2.667 0 0 1-2.667 2.667H8a2.667 2.667 0 0 1-2.667-2.667V8a2.667 2.667 0 0 1 2.667-2.667h2.667"/>
  <path fill="none" stroke="#fff" style="stroke: var(--color1, #fff)" stroke-width="2" stroke-linecap="round" stroke-linejoin="round" d="M12 14.667h8M12 20h8"/>
</symbol>

<!-- Дизайн та UX -->
<symbol id="icon-design" viewBox="0 0 32 32">
  <path fill="none" stroke="#fff" style="stroke: var(--color1, #fff)" stroke-width="2" stroke-linecap="round" stroke-linejoin="round" d="M16 29.333c7.364 0 13.333-5.97 13.333-13.333S23.364 2.667 16 2.667 2.667 8.636 2.667 16c0 3.634 1.454 6.928 3.811 9.333.235.235.319.577.215.89l-.47 1.41c-.195.586.272 1.182.888 1.13l2.58-.215c.302-.025.595.107.773.351 1.658 2.27 4.515.436 5.536.436z"/>
  <circle cx="10" cy="14" r="1.333" fill="#fff"/>
  <circle cx="15.333" cy="10" r="1.333" fill="#fff"/>
  <circle cx="22" cy="12.667" r="1.333" fill="#fff"/>
  <circle cx="20.667" cy="19.333" r="1.333" fill="#fff"/>
</symbol>

<!-- Розробка -->
<symbol id="icon-development" viewBox="0 0 32 32">
  <path fill="none" stroke="#fff" style="stroke: var(--color1, #fff)" stroke-width="2" stroke-linecap="round" stroke-linejoin="round" d="m21.333 24 8-8-8-8M10.667 8l-8 8 8 8M18.667 5.333l-5.334 21.334"/>
</symbol>

<!-- Тести та запуск -->
<symbol id="icon-launch" viewBox="0 0 32 32">
  <path fill="none" stroke="#fff" style="stroke: var(--color1, #fff)" stroke-width="2" stroke-linecap="round" stroke-linejoin="round" d="M26 6c-4.187 4.187-7.093 9.627-8 14-.427 2.08-.667 4-.667 4s1.92-.24 4-.667c4.373-.907 9.813-3.813 14-8L26 6z"/>
  <path fill="none" stroke="#fff" style="stroke: var(--color1, #fff)" stroke-width="2" stroke-linecap="round" stroke-linejoin="round" d="M6 22c-2 1.68-3.333 4.253-3.333 7.333l7.333-3.333C13.08 26 15.653 24.667 17.333 22.667M16 16l12-12M17.333 6c1.813 1.813 5.467 5.467 8.667 8.667l2.667-2.667-8.667-8.667-2.667 2.667zM12 20l-6 6-2 2 2-2 6-6z"/>
</symbol>

<!-- Чистий код (Code/Бракети з блискавкою) -->
<symbol id="icon-clean-code" viewBox="0 0 32 32">
  <path fill="none" stroke="#fff" style="stroke: var(--color1, #fff)" stroke-width="2" stroke-linecap="round" stroke-linejoin="round" d="m10.667 8-8 8 8 8M21.333 24l8-8-8-8"/>
  <path fill="none" stroke="#fff" style="stroke: var(--color1, #fff)" stroke-width="2" stroke-linecap="round" stroke-linejoin="round" d="M18.667 4L14.5 13.5h4.5L13.333 28"/>
</symbol>

<!-- Pixel Perfect (Target/Мішень-фокус) -->
<symbol id="icon-pixel-perfect" viewBox="0 0 32 32">
  <circle cx="16" cy="16" r="12" fill="none" stroke="#fff" style="stroke: var(--color1, #fff)" stroke-width="2" stroke-linecap="round" stroke-linejoin="round"/>
  <circle cx="16" cy="16" r="4" fill="none" stroke="#fff" style="stroke: var(--color1, #fff)" stroke-width="2" stroke-linecap="round" stroke-linejoin="round"/>
  <path fill="none" stroke="#fff" style="stroke: var(--color1, #fff)" stroke-width="2" stroke-linecap="round" stroke-linejoin="round" d="M16 2v2M16 28v2M2 16h2M28 16h2"/>
</symbol>

<!-- Максимальна швидкість (Zap/Блискавка-спідометр) -->
<symbol id="icon-speed" viewBox="0 0 32 32">
  <path fill="none" stroke="#fff" style="stroke: var(--color1, #fff)" stroke-width="2" stroke-linecap="round" stroke-linejoin="round" d="M17.333 2.667 5.333 17.333h10.667v12l12-14.666H17.333z"/>
</symbol>

<!-- SEO-адаптація (Search/Лупа зі стрілкою вгору) -->
<symbol id="icon-seo" viewBox="0 0 32 32">
  <circle cx="13.333" cy="13.333" r="8" fill="none" stroke="#fff" style="stroke: var(--color1, #fff)" stroke-width="2" stroke-linecap="round" stroke-linejoin="round"/>
  <path fill="none" stroke="#fff" style="stroke: var(--color1, #fff)" stroke-width="2" stroke-linecap="round" stroke-linejoin="round" d="m19 19 8 8M13.333 16v-5.333M10.667 13.333l2.666-2.666 2.667 2.666"/>
</symbol>


</defs>
</svg>
